<?xml version="1.0" encoding="utf-8"?>
<!-- Generator: Adobe Illustrator 27.5.0, SVG Export Plug-In . SVG Version: 6.00 Build 0)  -->
<svg version="1.1" xmlns="http://www.w3.org/2000/svg" xmlns:xlink="http://www.w3.org/1999/xlink" x="0px" y="0px"
	 viewBox="0 0 500 500" style="enable-background:new 0 0 500 500;" xml:space="preserve">
<g id="BACKGROUND">
	<rect style="fill:#FFFFFF;" width="500" height="500"/>
</g>
<g id="OBJECTS">
	<g style="opacity:0.22;">
		<path style="fill:#94D3C7;" d="M418.533,364.359c13.804-12.334,25.127-27.285,32.538-44.262
			c9.91-22.702,15.431-53.154-2.178-84.104c-35.188-61.846-16.177-77.635-55.543-124.728
			c-39.366-47.094-142.863-85.088-209.069,3.401S8.98,215.661,12.731,322.563c3.75,106.902,117.086,84.976,184.773,134.332
			c67.687,49.357,145.615,48.826,170.066-14.072C384.598,399.019,406.689,374.941,418.533,364.359z"/>
		<path style="fill:#94D3C7;" d="M180.152,89.407c-1.744,12.82-23.913,49.148-58.905,69.89c-34.992,20.743-63.73,23.08-63.001,3.198
			c0.729-19.882,19.109-55.871,66.549-86.135C152.561,58.648,183.45,65.165,180.152,89.407z"/>
	</g>
	<g>
		<defs>
			<rect id="SVGID_1_" width="500" height="500"/>
		</defs>
		<clipPath id="SVGID_00000071522304662418230650000002135244221862611897_">
			<use xlink:href="#SVGID_1_"  style="overflow:visible;"/>
		</clipPath>
		<g style="clip-path:url(#SVGID_00000071522304662418230650000002135244221862611897_);">
			<g>
				<path style="fill:#DDC666;" d="M395.312,302.042c0,0,1.152-4.609-0.922-9.679c-2.074-5.07-9.218-14.864-9.218-14.864v-2.074
					c0,0,0.576-1.613,0.691-2.535c0.108-0.865-1.62-2.122-4.116-1.558V122.076h-4.553v149.533c-0.726-0.27-1.521-0.307-1.7,0.706
					c-0.346,1.959,0,5.3,0,5.3s-6.107,8.987-10.14,14.403c-4.033,5.415-6.798,15.325-6.913,18.666
					c-0.115,3.341,0.576,8.066,1.498,7.95c0.922-0.115,2.42-3.802,2.42-3.802s-0.461,16.131,2.65,20.279
					c3.111,4.148,10.14,2.42,10.14,2.42s-0.461,4.724,3.341,5.646c3.802,0.922,9.448-0.115,9.909-1.613
					c0.461-1.498,1.152-4.494,1.152-4.494s6.222-2.765,7.605-7.72S397.501,307.918,395.312,302.042z"/>
				<polygon style="fill:#A0675C;" points="377.194,271.608 379.521,272.652 381.747,271.332 381.747,267.888 378.869,270.27 
					377.194,270.27 				"/>
				<path style="fill:#C69A4B;" d="M395.62,298.265c-0.051-1.671-0.347-3.743-1.23-5.902c-2.074-5.07-9.218-14.864-9.218-14.864
					l0.184-2.618l-1.24,0.783l-4.302,0.973l-4.415-3.571l0.094,4.549c0,0-6.107,8.987-10.14,14.403
					c-1.277,1.714-2.425,3.88-3.404,6.144c-0.49,4.88-1.186,10.207,0.365,10.761c1.834,0.655,6.68-11.265,6.68-11.265
					s-5.37,19.517-2.489,24.887c2.882,5.37,7.597,7.728,7.597,7.728l2.882-24.887l1.834,20.171c0,0,7.049-1.441,6.537-3.144
					c-0.512-1.703-0.774-25.754-0.774-25.754s4.191,19.336,6.156,18.157c1.965-1.179,3.668-13.098,3.668-13.098l-4.715-11.396
					L395.62,298.265z"/>
			</g>
			<g>
				<path style="fill:#576987;" d="M215.571,302.239c0,0-3.525-1.183-5.706,2.76c-2.181,3.943-2.331,17.91-2.331,17.91
					s-56.298,29.856-82.769,58.797S81.706,507.353,81.706,507.353h340.235c0,0-10.941-61.059-22.235-93.529
					s-73.747-86.029-100.588-98.118l-0.882-13.633c0,0,1.235-7.014-7.412-5.073c-8.647,1.941-65.118,4.059-65.118,4.059
					L215.571,302.239z"/>
				<path style="fill:#2D3747;" d="M209.864,304.999c-0.433,0.783-0.784,1.964-1.072,3.348l19.442,13.998
					c0,0,14.521,10.504,16.755,16.16c2.233,5.656,1.695,13.909,2.907,16.382c1.212,2.472,3.016,1.211,3.016,1.211
					s-2.208-15.303-2.343-16.784c-0.135-1.481-4.983-17.238-4.983-17.238l-22.355-14.275l-6.06-4.421l-0.669-1.302
					C213.288,302.037,211.291,302.419,209.864,304.999z"/>
				<path style="fill:#2D3747;" d="M254.986,354.888c0,0-1.272-13.982,0.762-19.207c1.842-4.732,35.805-28.329,42.482-35.388
					c-0.285-1.932-1.674-4.58-7.406-3.293c-1.112,0.25-3.021,0.502-5.494,0.753l-19.869,17.953L252.593,329L250,342.712
					l1.649,14.852L254.986,354.888z"/>
				<g>
					<g>
						<polygon style="fill:#2D3747;" points="213.462,308.968 211.337,306.529 212.877,304.143 						"/>
						<path style="fill:#576987;" d="M291.96,303.381l2.299-1.657c0.833-0.6,0.673-1.884-0.282-2.262l-2.017-0.797V303.381z"/>
					</g>
					<path style="fill:#2D3747;" d="M299.118,315.706l-37.24,32.747l49.322-26.067C311.2,322.386,302.799,317.018,299.118,315.706z"
						/>
					<polygon style="fill:#2D3747;" points="207.534,322.909 242.344,348.453 195.282,329.777 					"/>
				</g>
			</g>
			<path style="fill:#993047;" d="M253.724,354.888c0,0,4.798,58.81,13.831,94.969c9.033,36.159,8.994,57.496,8.994,57.496h-36.12
				l8.347-152.465H253.724z"/>
			<path style="fill:#FFBB99;" d="M291.96,273.691v29.69c0,0-35.988,25.641-38.237,32.164c-2.249,6.523,0,19.343,0,19.343h-4.948
				c0,0,0-11.471-2.474-17.769c-2.474-6.298-32.839-28.151-32.839-28.151l-3.598-29.663l69.275-0.216L291.96,273.691z"/>
			<path style="fill:#FFBB99;" d="M171.635,234.8c0,0-1.059,34.235,23.647,31.059c0,0,15.882,44.823,56.824,43.059
				c40.941-1.765,49.059-46.893,49.412-58.917c0,0,14.629-1.867,16.588-21.553s-8.471-32.131-8.471-32.131l-46.218-39.678
				l-18.427-9.367l-35.943,0.353l-16.792,30.462l-17.443,35.891L171.635,234.8z"/>
			<g>
				<path style="fill:#576987;" d="M167.956,194.489c0,0-4.107,0.747-5.6-8.586c-1.493-9.333-3.733-22.773-3.733-22.773
					l-76.904-42.185l-0.623-6.738l163.14-85.521l141.353,90.079v5.824L312,160.059l2.647,27.529l-59.824-25.941l-24.069-4.579
					l-1.808,0.535L188.824,180L167.956,194.489z"/>
				<path style="fill:#2D3747;" d="M232.529,85.748c56.448-2.162,71.583,22.865,72.304,25.846
					c0.721,2.981,7.712,54.137,7.712,54.137l0,0L312,160.059l73.588-35.471v-5.824L244.235,28.685l-163.14,85.521l0.623,6.738
					l76.904,42.185l-5.338-35.062c-0.347-2.279,0.255-4.603,1.687-6.41C161.965,112.836,185.982,87.531,232.529,85.748z"/>
				<polygon style="fill:#576987;" points="244.235,28.685 81.096,114.207 81.718,120.945 244.99,36.02 385.588,124.588 
					385.588,118.765 				"/>
			</g>
			<g>
				<g>
					<path style="fill:#8E5A5A;" d="M199.592,166.217C199.592,166.217,199.592,166.217,199.592,166.217
						c-21.898,7.064-31.714,19.564-31.714,19.564c-1.219,4.631-3.412,6.581-8.531,11.213c-5.119,4.631-4.875,10.481-4.875,10.481
						l5.85-3.656c0,0-2.438,4.387-3.169,6.825c-0.731,2.438,1.219,9.994,2.194,10.238c0.975,0.244,1.95-7.556,1.95-7.556
						s-0.731,9.994,3.656,19.5c3.407,7.381,12.543,12.264,16.459,14.078c0.851,0.394,1.822-0.222,1.822-1.159l4.156,4.156
						c0.734,0.734,1.97,0.097,1.81-0.929c-1.565-10.014-1.874-25.029-1.893-34.591c4.706-1.858,9.718-4.471,14.435-8.034
						c15.222-11.497,17.003-21.052,17.003-21.052s-0.648,3.725,2.105,3.239c2.753-0.486,5.668-13.603,5.668-13.603
						s1.781,0,3.077-1.943c1.296-1.943-0.648-15.384-0.648-15.384C217.34,159.557,205.495,163.873,199.592,166.217z"/>
					<path style="fill:#8E5A5A;" d="M313.489,175.746c-1.436-0.855-2.835-1.619-4.121-2.284l0.001,0c0,0,0.174-1.793-2.456-3.898
						c-2.631-2.105-13.75-8.088-36.303-11.96c-19.204-3.297-39.854-0.535-39.854-0.535s5.524,10.259,13.679,16.441
						c8.155,6.182,13.153,6.182,13.416,4.735c0.263-1.447-1.973-4.867-1.973-4.867s8.418,6.314,15.784,7.103
						c0,0,0.921,2.894,8.023,5.524c7.103,2.631,13.022,6.182,13.022,6.182s2.236,15.521,3.288,24.86
						c1.052,9.339,1.578,19.598,1.578,19.598s5.788-1.052,8.155-8.681c2.368-7.629,3.288-9.733,3.288-9.733s6.577-1.842,11.049-9.47
						c4.472-7.629,1.578-15.784,1.578-15.784s2.368,2.894,3.683,1.447C326.642,192.977,319.013,179.034,313.489,175.746z"/>
				</g>
				<path style="fill:#663838;" d="M199.591,166.217c-21.898,7.064-31.714,19.564-31.714,19.564
					c-0.464,1.762-1.07,3.136-1.924,4.417l7.713-1.089c0,0-8.562,15.477-8.232,17.904c0.329,2.426,16.794-10.697,16.794-10.697
					s-10.208,14.198-10.601,14.204s27.395-9.227,30.688-14.204c3.293-4.978,11.292-22.683,11.292-22.683s-0.425,10.537,3.527,10.208
					c3.089-0.257,4.193-12.387,4.527-17.67c0.085,1.722,0.613,3.795,2.608,4.169c2.09,0.392,1.693-6.442,1.029-12.044
					C214.924,160.445,204.877,164.119,199.591,166.217C199.592,166.217,199.592,166.217,199.591,166.217z"/>
				<path style="fill:#663838;" d="M313.489,175.746c-1.436-0.855-2.835-1.619-4.121-2.284l0.001,0c0,0,0.174-1.793-2.456-3.898
					c-2.631-2.105-13.75-8.088-36.303-11.96c-12.803-2.198-26.241-1.703-33.782-1.129c4.081,4.715,12.382,14.194,13.173,14.194
					c1.052,0,2.369-6.915,2.369-6.915s11.855,10.867,13.172,10.867s5.418-4.281,5.418-4.281l-6.406-6.092
					c0,0,24.421,16.554,25.712,15.439c1.291-1.115,1.695-10.335,1.695-10.335s23.362,13.893,33.04,25.327
					c0.113-0.063,0.224-0.142,0.326-0.254C326.642,192.977,319.013,179.034,313.489,175.746z"/>
				<polygon style="fill:#663838;" points="187.306,214.38 173.648,221.604 187.347,219.685 				"/>
				<polygon style="fill:#663838;" points="292.706,192.188 307.194,199.684 293.932,200.94 				"/>
			</g>
			<g>
				<path style="fill:#E29C6D;" d="M297.531,238.57c0.909,3.906-5.687,8.78-14.734,10.885c-9.046,2.105-17.117,0.645-18.026-3.261
					c-0.909-3.906,5.687-8.78,14.734-10.885C288.552,233.204,296.622,234.663,297.531,238.57z"/>
				
					<ellipse transform="matrix(0.043 -0.9991 0.9991 0.043 -47.8017 446.3143)" style="fill:#E29C6D;" cx="209.059" cy="248.108" rx="7.262" ry="16.818"/>
				<g>
					<g>
						<path style="fill:#663838;" d="M282.257,203.328c-4.879,0.393-14.577,1.399-21.82,3.591c-1.605,0.486-3.106-1.012-2.597-2.609
							c0.94-2.95,3.766-6.929,11.94-8.915c7.926-1.926,12.09,1.815,14.053,4.733C284.71,201.432,283.823,203.202,282.257,203.328z"
							/>
						<path style="fill:#663838;" d="M199.835,209.786c4.87-0.501,14.587-1.276,22.107-0.438c1.666,0.186,2.87-1.56,2.079-3.038
							c-1.461-2.729-4.964-6.128-13.363-6.594c-8.076-0.448-11.5,3.91-12.922,7.129
							C197.085,208.318,198.232,209.951,199.835,209.786z"/>
					</g>
					<g>
						<g>
							<path style="fill:#FFFFFF;" d="M198.224,236.165l30.68,1.418c0,0,2.061-20.045-13.796-21.424
								C199.252,214.781,198.438,233.287,198.224,236.165z"/>
						</g>
						<path style="fill:#663838;" d="M228.975,238.727c-0.189-2.456-0.494-4.852-1.049-7.156c-0.523-2.298-1.294-4.512-2.4-6.418
							c-1.11-1.901-2.552-3.482-4.347-4.444c-0.887-0.495-1.842-0.878-2.867-1.092c-1.006-0.264-2.085-0.353-3.165-0.394
							c-1.084,0-2.172,0.018-3.204,0.237c-1.042,0.172-2.051,0.47-2.996,0.907c-1.919,0.825-3.578,2.225-4.989,3.935
							c-1.388,1.732-2.54,3.766-3.438,5.947c-0.934,2.176-1.636,4.486-2.217,6.88c-0.306-2.461-0.115-4.966,0.337-7.447
							c0.515-2.464,1.341-4.939,2.749-7.193c1.4-2.239,3.406-4.27,5.896-5.532c2.471-1.318,5.287-1.767,7.955-1.731
							c2.665,0.084,5.502,0.684,7.894,2.244c2.424,1.501,4.176,3.858,5.204,6.301c1.057,2.461,1.428,5.048,1.526,7.56
							C229.895,233.849,229.666,236.346,228.975,238.727z"/>
						<path style="fill:#492828;" d="M214.011,223.762c-0.821,0-1.616,0.102-2.384,0.277c0.093,0.074,0.194,0.133,0.28,0.218
							c1.47,1.47,1.198,4.125-0.607,5.931c-1.806,1.805-4.461,2.077-5.931,0.607c-0.377-0.376-0.635-0.832-0.787-1.33
							c-0.778,1.479-1.224,3.161-1.224,4.949c0,0.683,0.07,1.349,0.193,1.996l20.689,0.956c0.27-0.938,0.423-1.927,0.423-2.952
							C224.664,228.532,219.894,223.762,214.011,223.762z"/>
					</g>
					<g>
						<path style="fill:#FFFFFF;" d="M290.265,228.119l-30.061,6.296c0,0-5.234-19.459,10.199-23.351
							C285.836,207.173,289.594,225.312,290.265,228.119z"/>
						<path style="fill:#663838;" d="M260.204,234.415c-1.049-2.246-1.66-4.678-2.017-7.174c-0.289-2.497-0.32-5.11,0.346-7.704
							c0.641-2.572,2.009-5.17,4.173-7.026c2.124-1.909,4.835-2.938,7.455-3.431c2.631-0.446,5.482-0.435,8.126,0.487
							c2.655,0.865,4.949,2.563,6.677,4.56c1.738,2.011,2.935,4.329,3.822,6.685c0.828,2.382,1.402,4.828,1.478,7.307
							c-0.943-2.276-1.991-4.451-3.249-6.457c-1.223-2.017-2.674-3.85-4.312-5.348c-1.657-1.473-3.512-2.601-5.534-3.121
							c-1.001-0.287-2.043-0.426-3.1-0.435c-1.053-0.058-2.131,0.092-3.202,0.259c-1.061,0.207-2.113,0.46-3.066,0.876
							c-0.98,0.37-1.865,0.895-2.665,1.52c-1.626,1.227-2.808,3.011-3.612,5.06c-0.8,2.053-1.222,4.359-1.385,6.711
							C259.947,229.545,260.013,231.96,260.204,234.415z"/>
						<path style="fill:#492828;" d="M285.335,227.43c-0.909-5.813-6.357-9.789-12.17-8.88c-1.171,0.183-2.263,0.558-3.26,1.075
							c0.655,0.118,1.26,0.392,1.736,0.868c1.47,1.47,1.198,4.126-0.607,5.931c-1.806,1.805-4.461,2.077-5.931,0.607
							c-0.234-0.234-0.408-0.505-0.554-0.79c-0.392,1.416-0.505,2.933-0.263,4.479c0.158,1.013,0.462,1.966,0.874,2.851l20.293-4.14
							C285.474,228.774,285.441,228.105,285.335,227.43z"/>
					</g>
				</g>
				<g>
					<path style="fill:#FFFFFF;" d="M222.078,267.395c-0.806-1.003,0.201-2.432,1.416-2.009c5.382,1.876,15.48,4.44,26.768,2.511
						c11.503-1.966,20.042-7.126,24.259-10.163c0.992-0.714,2.326,0.244,1.968,1.412c-2.226,7.276-8.69,22.773-23.664,24.36
						C238.316,285.044,227.001,273.522,222.078,267.395z"/>
					<g>
						<path style="fill:#A0675C;" d="M246.662,268.368c0,0-18.529-1.342-23.419-4.026c-4.89-2.684-8.499,3.021-8.499,3.021
							l4.773-1.367C219.518,265.997,234.106,270.421,246.662,268.368z"/>
						<path style="fill:#A0675C;" d="M252.259,267.471c0,0,17.564-6.052,21.601-9.901c4.037-3.849,8.99,0.739,8.99,0.739
							l-4.964-0.096C277.885,258.213,264.921,266.232,252.259,267.471z"/>
					</g>
					<g>
						<path style="fill:#90A7BA;" d="M231.804,276.884l14.859-0.733l-19.519-3.224C228.536,274.26,230.093,275.611,231.804,276.884z
							"/>
						<path style="fill:#90A7BA;" d="M273.946,265.824l-17.985,8.946l15.089-3.636C272.188,269.36,273.148,267.553,273.946,265.824z
							"/>
					</g>
					<path style="fill:#A0675C;" d="M239.981,237.367c-0.527,2.215-1.145,4.387-1.712,6.568c-0.589,2.165-1.181,4.35-1.621,6.471
						c-0.055,0.266-0.107,0.53-0.136,0.781c-0.032,0.25-0.087,0.526-0.08,0.727l-0.019,0.323c0.013,0.049,0.026,0.032,0.009,0.054
						c0.011,0.033,0.048,0.09,0.193,0.256c0.515,0.596,1.428,1.227,2.307,1.714c1.794,1.014,3.79,1.746,5.789,2.007
						c0.996,0.124,1.99,0.148,2.952,0.024c0.917-0.139,1.95-0.419,2.933-0.788c1.977-0.693,3.811-1.763,5.397-3.099
						c0.786-0.67,1.491-1.445,2.016-2.268c0.142-0.204,0.242-0.413,0.347-0.618l0.124-0.302c0.001-0.058,0.015-0.112,0.04-0.173
						c0.013-0.324-0.134-0.802-0.337-1.261c-0.898-1.89-2.395-3.662-3.831-5.399c0.957,0.621,1.86,1.32,2.724,2.079
						c0.862,0.766,1.678,1.584,2.389,2.595c0.332,0.527,0.661,1.096,0.776,1.901c0.003,0.22-0.005,0.446-0.025,0.67l-0.121,0.506
						c-0.101,0.317-0.208,0.635-0.347,0.92c-0.53,1.174-1.3,2.142-2.13,3.036c-1.665,1.797-3.768,3.091-5.976,4.055
						c-1.105,0.483-2.247,0.832-3.549,1.079c-1.274,0.185-2.547,0.164-3.788,0.015c-2.465-0.39-4.77-1.261-6.847-2.552
						c-1.033-0.688-2.006-1.369-2.913-2.53c-0.207-0.266-0.492-0.699-0.607-1.208c-0.041-0.258-0.072-0.556-0.067-0.787l0.069-0.518
						c0.042-0.363,0.13-0.635,0.201-0.938c0.07-0.303,0.156-0.586,0.244-0.865c0.68-2.247,1.582-4.321,2.505-6.401
						C237.85,241.379,238.838,239.339,239.981,237.367z"/>
					<path style="fill:#A0675C;" d="M239.559,233.572l-8.856-23.774C230.704,209.797,238.193,221.974,239.559,233.572z"/>
					<path style="fill:#A0675C;" d="M211.337,291.445c5.833,5.262,12.464,9.517,19.56,12.449c7.099,2.89,14.814,4.202,22.323,3.203
						c7.531-0.861,14.703-3.952,21.114-8.189c6.46-4.219,12.207-9.563,17.626-15.262c-4.45,6.485-9.839,12.434-16.286,17.182
						l-2.431,1.763l-2.577,1.558c-0.434,0.253-0.853,0.533-1.3,0.763l-1.352,0.675c-0.91,0.431-1.785,0.942-2.729,1.307
						c-3.711,1.609-7.679,2.639-11.704,3.178c-4.036,0.475-8.147,0.381-12.14-0.326c-3.985-0.737-7.865-1.974-11.481-3.718
						c-3.634-1.708-7.02-3.867-10.162-6.296C216.684,297.272,213.771,294.548,211.337,291.445z"/>
				</g>
				<g>
					<path style="fill:#D39B75;" d="M195.282,265.858l-6.417-12.966l1.908,12.966C190.774,265.858,191.043,266.419,195.282,265.858z
						"/>
					<path style="fill:#D39B75;" d="M301.517,250v-12.633l4.022,11.347C305.539,248.715,303.13,249.943,301.517,250z"/>
				</g>
			</g>
			<g>
				<path style="fill:#DDC666;" d="M299.294,360.441c0,0-23.465-7.676-40.806-6.529l-5.212-2.149c0,0-3.848-1.548-5.644-0.585
					c-1.796,0.962-1.924,2.053-1.924,2.053s-10.468-3.935-24.511-6.443c-14.043-2.508-25.678-5.116-29.991,1.404
					s-6.319,17.353-3.812,21.666c2.508,4.313,39.42-5.316,39.42-5.316l19.058-5.617c0,0-0.008,1.214,1.304,1.204l0.639-0.112
					l-24.425,86.112c0,0-2.126,2.516-2.554,3.581c-0.428,1.065-0.015,2.246-0.015,2.246s-9.994,16.282-10.699,18.935
					c-0.705,2.654,0.251,4.592,0.251,4.592s-0.313,1.388-0.286,2.617s1.513,4.391,3.863,4.862c2.35,0.472,4.057-3.415,4.057-3.415
					s5.765-0.642,7.843-6.928c2.077-6.286,1.185-20.207,1.185-20.207s0.601-0.627,0.628-1.743c0.027-1.116-1.329-1.771-1.329-1.771
					l24.278-89.373l0.3-0.053c0,0,1.154,0.706,2.315,1.072l6.449,92.634c0,0-1.147,3.088-1.188,4.235
					c-0.041,1.147,0.747,2.118,0.747,2.118s-3.882,18.706-3.645,21.441c0.237,2.735,1.792,4.235,1.792,4.235
					s0.177,1.412,0.618,2.559c0.441,1.147,2.912,3.618,5.282,3.265c2.371-0.353,2.659-4.588,2.659-4.588s5.206-2.559,5.029-9.176
					c-0.176-6.618-5.735-19.412-5.735-19.412s0.353-0.794,0-1.853s-1.851-1.216-1.851-1.216l-7.632-94.449
					c0.79-0.42,1.277-0.953,1.277-0.953l33.177,18.177c0,0,10.941,7.059,18.176,5.823c7.235-1.235,10.676-9,10.5-13.059
					C318.706,366.265,299.294,360.441,299.294,360.441z M245.524,356.451c0,0-50.808,9.542-52.543,7.559
					c-1.735-1.983,0.248-8.922,3.47-11.277c3.222-2.354,7.683-1.983,21.438-1.611c13.755,0.372,27.634,4.337,27.634,4.337V356.451z
					 M305.275,378.972c-2.355,0.124-47.117-21.407-47.117-21.407l0.435-1.466c0,0,49.123,10.78,52.717,14.126
					C314.903,373.571,307.629,378.848,305.275,378.972z"/>
				<g style="opacity:0.67;">
					<path style="fill:#B27042;" d="M221.198,346.787c-14.043-2.508-25.678-5.116-29.991,1.404s-6.319,17.353-3.812,21.666
						c2.508,4.313,39.42-5.316,39.42-5.316l19.058-5.617l-0.354-2.471c-0.246,0.046-50.806,9.536-52.537,7.558
						c-1.735-1.983,0.248-8.922,3.47-11.277c3.222-2.354,7.683-1.983,21.438-1.611c12.914,0.349,26.09,3.908,27.634,4.337
						l0.184-2.23C245.708,353.23,235.24,349.294,221.198,346.787z"/>
					<path style="fill:#B27042;" d="M299.294,360.441c0,0-23.465-7.676-40.806-6.529c0,0,0.051,0.32,0.083,1.271l-3.97,1.787
						c0,0-4.933-2.295-6.372-2.295c-1.439,0-2.705,0.785-2.705,0.785v0.991c0,0,2.26-0.504,2.705-0.352
						c0.445,0.151,5.31,1.932,5.31,1.932l-2.627,1.439c0,0,1.496,1.507,3.586,1.336c1.214-0.1,2.012-0.636,2.609-1.381
						l33.098,18.134c0,0,10.941,7.059,18.176,5.823c7.235-1.235,10.676-9,10.5-13.059
						C318.706,366.265,299.294,360.441,299.294,360.441z M305.275,378.972c-2.323,0.122-45.94-20.841-47.09-21.394
						c-0.068,0.141-0.144,0.28-0.222,0.417c0.066-0.142,0.132-0.284,0.194-0.43c0.253-0.595,0.394-1.079,0.472-1.458
						c1.511,0.332,49.143,10.825,52.68,14.118C314.903,373.571,307.629,378.848,305.275,378.972z"/>
					<g>
						<path style="fill:#A0675C;" d="M259.676,453.177l3.708,1.608l-4.896,2.388C258.488,457.172,258.431,455.308,259.676,453.177z"
							/>
						<path style="fill:#C69A4B;" d="M270.43,473.278c-0.643-3.04-1.757-6.462-2.791-9.313c-1.234-3.22-2.404-6.113-2.404-6.113
							s-2.894,1.742-3.967,2.019c-1.073,0.277-2.033-0.342-2.033-0.342s-0.754,3.724-0.842,4.163
							c-0.003,0.014-0.006,0.028-0.008,0.043c-0.054,0.28-2.066,14.554-1.893,16.905c0.173,2.354,3.427,5.919,3.911,5.884
							c0.485-0.035,1.177-15.646,1.177-15.646s0.623,10.073,0.692,10.661c0.069,0.588,1.454,2.561,2.077,2.908
							c0.623,0.346,2.977-1.869,3.496-3.219c0.519-1.35-0.692-9.83-0.692-9.83l2.319,4.154
							C269.472,475.552,270.23,474.634,270.43,473.278z"/>
						<path style="fill:#A0675C;" d="M226.335,448.897h-5.047l-0.587,1.012l6.547,1.518l-3.989,0.824l3.776,0.161
							C227.035,452.411,229.28,450.226,226.335,448.897z"/>
					</g>
				</g>
			</g>
			<g>
				<polygon style="fill:#FFFFFF;" points="226.663,462.385 195.301,375.073 152.742,391.86 189.516,474.32 				"/>
				<path style="fill:#B1B9C4;" d="M195.301,375.073c1.212,3.073-7.332,9.322-19.085,13.958c-11.752,4.636-22.262,5.903-23.474,2.83
					c-1.212-3.073,7.332-9.322,19.085-13.958C183.579,373.266,194.089,372,195.301,375.073z"/>
				
					<ellipse transform="matrix(0.9302 -0.3669 0.3669 0.9302 -129.017 90.883)" style="fill:#8792A0;" cx="174.532" cy="384.781" rx="21.535" ry="4.571"/>
			</g>
			<g>
				<path style="fill:#FFBB99;" d="M263.857,507.353c0,0-16.529-25.23-24.123-33.718c0,0-4.318-11.764-7.892-12.657
					c-3.574-0.894-33.951-2.68-40.95,0c-6.999,2.68-12.657,14.295-12.657,16.529c0,2.234,9.381,12.955,9.381,12.955
					s-3.127,3.574-3.425,6.254c-0.298,2.68,6.85,8.935,6.85,8.935v1.703H263.857z"/>
				<path style="fill:#D39B75;" d="M232.636,461.345c0,0,2.652,7.008,2.818,9.156c0.165,2.148-0.661,5.287-0.661,5.287
					s5.785,7.429,6.775,10.737c0.99,3.307-0.503,9.191-0.503,9.191l-13.212,11.637h36.003c0,0-21.33-32.897-24.123-33.718
					C239.734,473.635,235.601,461.112,232.636,461.345z"/>
				<g>
					<path style="fill:#935C54;" d="M186.297,496.439c0.362-1.461,9.595-12.058,11.696-12.981s28.226-8.394,28.226-8.394
						s-25.029,5.298-26.034,5.115c-1.005-0.183-6.76-3.471-6.76-3.471l3.38,4.202l-6.486-0.548l4.659,2.137
						c0,0-5.481,4.715-6.303,4.715c-0.822,0-7.537-4.713-7.538-4.714c2.755,3.708,6.479,7.963,6.479,7.963s-3.127,3.574-3.425,6.254
						c-0.298,2.68,6.85,8.935,6.85,8.935S185.935,497.9,186.297,496.439z"/>
					<path style="fill:#935C54;" d="M235.171,492.328c-2.01-0.183-6.212,2.375-6.212,2.375l-19.183,4.476l-18.736,6.471v1.703
						l19.284-6.712l19.366-3.928c0,0,4.111-2.01,5.115-2.192c1.005-0.183,6.942,1.736,6.942,1.736S237.181,492.511,235.171,492.328z
						"/>
				</g>
			</g>
		</g>
	</g>
</g>
</svg>
